<svg width="68" height="42" viewBox="0 0 68 42" fill="none" xmlns="http://www.w3.org/2000/svg">
<path fill-rule="evenodd" clip-rule="evenodd" d="M38.7321 17.0596C40.4319 17.0596 41.6925 17.5154 42.6198 18.1221C42.8795 18.2916 43.2254 18.1157 43.2395 17.807C43.248 17.615 43.3915 17.4601 43.5764 17.431L43.6394 17.4261H47.1778C47.392 17.4261 47.5639 17.5924 47.5777 17.7977L47.577 17.8604L47.5348 18.3245C47.4392 19.3281 47.4025 20.4653 47.3993 22.3306L47.399 31.9102C47.399 35.7613 46.5904 38.2181 44.7716 39.8677C42.6346 41.7227 39.7293 42 38.1839 42C36.0006 42 33.8205 41.4795 32.4245 40.6474L32.2542 40.5418L31.974 40.361C31.8403 40.2749 31.772 40.1194 31.7958 39.9665L31.8117 39.9014L32.8389 36.8148C32.9142 36.5887 33.1677 36.4828 33.379 36.5751L33.4354 36.6052L33.8928 36.8969C34.4376 37.2486 35.9606 38.0577 38.2797 38.0577C40.9215 38.0577 42.3719 36.8692 42.7023 34.4321C42.7468 34.1041 42.3902 33.8673 42.1039 34.036C41.0215 34.6704 39.7072 35.0252 38.2797 35.0252C33.8095 35.0252 30.4328 31.2933 30.4328 26.3528C30.4328 20.2548 34.6117 17.0596 38.7321 17.0596ZM8.77466 10.1196C9.1105 10.0304 9.74865 9.89314 10.0379 10.1389C10.0659 10.1514 10.083 10.1771 10.1001 10.2043C10.3458 10.5068 10.4636 10.9772 10.6257 11.3345C10.814 11.7648 11.0324 12.1871 11.227 12.6193C11.4361 13.0953 11.6452 13.5627 11.8543 14.0293C12.5174 15.533 12.3146 15.8086 10.6675 16.2484C9.5865 16.5433 8.4664 16.6087 7.48123 17.3657C5.78746 18.674 5.8061 20.366 7.72463 21.3839C9.31962 22.2372 10.9429 23.0385 12.5976 23.7894C17.9558 26.2078 18.8418 34.5023 14.8739 38.2955C12.3806 40.6708 9.56824 41.8183 6.25713 41.9934C5.57351 42.032 5.1743 41.925 4.98419 41.0432C4.70762 39.7762 4.45937 38.4691 4.04636 37.2625C3.59236 35.9577 4.12315 35.9251 5.10385 35.8518L5.49295 35.8262C7.30987 35.7045 9.13125 35.5175 10.4967 33.9919C11.8386 32.5002 11.5591 31.0063 9.98758 29.7298C8.89275 28.8365 7.63765 28.33 6.38259 27.8492L5.75581 27.6093C5.44317 27.4887 5.1322 27.366 4.8254 27.2355C0.941381 25.6035 -0.208917 21.9949 0.0300143 18.8403C0.33604 15.0532 2.57066 12.4023 6.13785 11.0793C7.00225 10.7507 7.88342 10.3624 8.77466 10.1196ZM57.4007 17.0595C62.5609 17.0595 66.1684 20.7714 66.1684 26.0819C66.1684 32.4337 61.622 35.373 57.3331 35.4503L57.1593 35.4519H57.119C54.714 35.4519 52.5021 34.575 50.9168 32.9791C49.2661 31.3189 48.3916 29.0429 48.3916 26.3875C48.3916 20.8989 52.101 17.0595 57.4007 17.0595ZM22.2307 17.4256C22.5852 17.4256 22.8764 17.6925 22.9136 18.035L22.9177 18.1095V34.3942C22.9177 34.7465 22.6501 35.0366 22.3056 35.0737L22.2307 35.0777H18.9513C18.5971 35.0777 18.3056 34.8111 18.2683 34.4686L18.2643 34.3942V18.1095C18.2643 17.7572 18.5322 17.4668 18.8764 17.4296L18.9513 17.4256H22.2307ZM28.9762 17.4256C29.1953 17.4256 29.3771 17.5869 29.4083 17.7962L29.413 17.8602V34.6438C29.413 34.8615 29.2512 35.042 29.0407 35.073L28.9762 35.0777H25.2006C24.9815 35.0777 24.7998 34.917 24.7686 34.7079L24.7638 34.6438V18.1095C24.7638 17.7572 25.0317 17.4668 25.376 17.4296L25.4508 17.4256H28.9762ZM57.297 20.8989C54.3798 20.8989 53.0842 23.5982 53.0842 26.2888C53.0842 29.3043 54.7416 31.5165 57.0521 31.6055L57.1974 31.6083H57.2281C59.6525 31.6083 61.4154 29.3263 61.4154 26.1874C61.4154 24.3604 60.5475 20.8989 57.297 20.8989ZM39.21 20.9667C36.7281 20.9667 35.1249 23.0259 35.1249 26.2211C35.1249 28.4983 36.1875 31.1488 39.1761 31.1488C40.687 31.1488 41.977 30.252 42.4902 28.8661L42.5422 28.7158L42.5548 28.6779C42.6599 28.394 42.7281 28.0086 42.7434 27.5896L42.7468 27.4081V24.5367C42.7468 24.1372 42.715 23.846 42.6493 23.6122L42.619 23.5154L42.616 23.498C42.1187 21.9119 40.8417 20.9667 39.21 20.9667ZM40.0713 8.35131L40.0735 8.36171C48.9678 7.08923 53.5197 13.1021 53.5197 13.1021C53.0951 12.6546 66.1329 10.5208 68 21.377C66.1329 12.7946 55.9536 12.6448 53.1126 14.0031C47.8718 7.44782 40.4358 8.81789 38.6327 9.18935C37.8442 4.82343 33.7846 0.280481 26.595 0.836907C14.5251 1.78067 13.7514 14.207 13.7514 14.207C12.8204 12.722 12.2976 10.985 11.3666 9.30056C11.1831 8.9568 11.7909 9.47996 12.4096 10.0545L12.586 10.2194C13.0828 10.6864 13.5381 11.1363 13.5381 11.1363C14.9676 1.04268 26.1689 0.0156968 26.1689 0.0156968C38.0492 -0.411348 39.9981 8.01412 40.0713 8.35131ZM20.5876 10.7506C22.1471 10.7506 23.3158 11.8998 23.3158 13.4223C23.3158 14.924 22.2079 16.0667 20.6984 16.1346L20.5557 16.1378H20.5173C18.9749 16.1378 17.8176 14.9709 17.8176 13.4223C17.8176 11.8998 19.0049 10.7506 20.5876 10.7506ZM27.0876 10.7506C28.6429 10.7506 29.8207 11.8998 29.8207 13.4223C29.8207 14.924 28.7071 16.0667 27.1924 16.1346L27.0492 16.1378H27.0173C25.4813 16.1378 24.3229 14.9709 24.3229 13.4223C24.3229 11.8998 25.5068 10.7506 27.0876 10.7506Z" fill="#009DFF"/>
</svg>
